<?xml version="1.0" standalone="no"?>
<!DOCTYPE svg PUBLIC "-//W3C//DTD SVG 20010904//EN"
 "http://www.w3.org/TR/2001/REC-SVG-20010904/DTD/svg10.dtd">
<svg version="1.0" xmlns="http://www.w3.org/2000/svg"
 width="1080.000000pt" height="976.000000pt" viewBox="0 0 1080.000000 976.000000"
 preserveAspectRatio="xMidYMid meet">

<g transform="translate(0.000000,976.000000) scale(0.100000,-0.100000)"
fill="#000000" stroke="none">
<path d="M5410 9174 c-107 -80 -260 -194 -340 -252 -138 -101 -622 -463 -742
-556 -31 -24 -155 -120 -275 -213 -120 -93 -285 -220 -368 -283 -82 -63 -258
-197 -390 -299 -357 -275 -452 -347 -537 -410 -42 -31 -79 -62 -82 -68 -4 -10
29 -13 147 -14 148 0 211 -9 176 -23 -9 -4 -16 -12 -17 -19 0 -7 -5 -30 -11
-52 -11 -44 6 -85 34 -85 8 0 15 -4 15 -8 0 -14 112 -69 155 -76 22 -4 61 -7
87 -8 26 0 45 -4 43 -8 -8 -13 48 -22 122 -19 68 3 113 15 113 31 0 4 15 6 34
4 19 -2 37 -1 41 2 3 3 38 7 78 8 40 1 82 3 94 3 14 1 23 8 25 24 2 16 9 21
25 20 14 -2 38 12 65 38 24 22 58 53 76 70 17 16 32 34 32 39 0 6 16 28 36 50
20 21 33 44 29 50 -4 6 -1 9 7 8 8 -2 14 8 16 23 2 16 13 32 28 39 24 14 32
30 14 30 -5 0 -10 -4 -10 -9 0 -5 -11 -8 -25 -7 -14 0 -25 4 -25 7 0 11 86 83
135 114 17 11 47 34 68 52 20 18 40 33 45 33 4 0 30 20 57 45 28 25 60 48 72
51 13 3 20 11 17 16 -4 6 2 8 17 3 16 -4 19 -3 11 3 -9 6 -2 16 30 38 24 16
44 32 46 36 2 4 10 4 19 1 11 -4 14 -2 9 5 -4 7 -1 12 9 12 12 0 15 -5 9 -22
-6 -20 -5 -21 10 -9 15 12 15 16 2 30 -14 15 -13 19 11 36 15 11 47 37 72 58
25 20 51 41 56 45 6 4 61 47 123 95 61 48 115 87 118 87 3 0 19 13 37 30 18
16 36 30 40 30 5 0 16 7 24 16 22 22 118 94 126 94 3 0 21 14 39 30 18 17 41
30 51 30 10 0 16 4 13 9 -9 14 25 23 40 10 9 -7 18 -7 33 1 23 12 28 1 9 -18
-8 -8 -8 -12 -1 -12 6 0 17 7 24 16 11 14 9 19 -14 36 -30 22 -35 38 -12 38 9
0 18 6 21 14 3 8 21 22 40 31 19 9 34 20 34 25 0 5 18 14 41 20 34 9 44 9 58
-4 20 -19 35 -21 25 -5 -4 7 -1 10 6 7 19 -6 36 -35 27 -45 -4 -4 -17 -2 -27
5 -11 7 -27 12 -35 12 -9 0 -14 4 -11 8 2 4 -7 9 -22 10 l-27 1 24 -19 c12
-11 27 -17 32 -14 5 3 9 1 9 -4 0 -13 -28 -23 -35 -13 -8 13 -64 19 -62 7 1
-6 -7 -10 -18 -8 -18 2 -18 1 4 -18 28 -24 20 -26 -15 -3 -21 13 -27 14 -34 3
-5 -9 -1 -19 12 -30 18 -14 19 -19 7 -38 -16 -25 -7 -38 18 -27 10 4 29 7 43
6 19 -1 22 0 10 8 -24 17 17 26 54 13 42 -15 48 -15 71 3 39 29 70 56 57 50
-11 -6 -11 -3 -1 13 7 12 17 18 21 16 5 -3 5 -10 2 -16 -4 -6 -2 -8 3 -5 6 4
28 -7 49 -24 89 -71 144 -113 360 -274 58 -44 141 -107 184 -140 42 -33 90
-69 105 -80 15 -11 42 -31 59 -45 17 -14 67 -53 111 -86 44 -34 114 -88 156
-120 42 -33 114 -88 160 -123 46 -36 100 -78 120 -95 20 -17 68 -53 107 -80
39 -27 69 -53 66 -58 -3 -4 3 -5 12 -1 11 4 15 3 10 -5 -3 -6 2 -13 13 -17 11
-3 25 -13 33 -22 11 -15 11 -16 -4 -10 -10 3 -18 2 -18 -3 0 -6 6 -10 13 -10
9 0 9 -2 0 -8 -18 -12 -3 -58 33 -100 30 -35 124 -92 152 -92 6 0 23 -5 39
-11 15 -6 44 -13 63 -14 19 -2 64 -11 100 -20 87 -24 231 -24 296 0 77 28 134
56 134 66 0 5 9 9 19 9 11 0 29 14 41 30 12 17 27 30 34 30 7 0 19 11 26 25 7
14 18 25 23 25 6 0 18 7 28 16 20 18 15 44 -10 45 -10 0 -8 3 7 10 13 5 28 7
32 4 5 -3 11 -1 14 4 4 5 41 7 84 5 117 -7 130 15 44 77 -26 19 -133 101 -237
184 -105 82 -245 192 -310 242 -442 342 -547 423 -600 463 -32 25 -82 63 -110
85 -29 22 -207 156 -396 298 -189 142 -382 286 -429 322 -523 395 -751 564
-760 565 -3 0 -93 -66 -200 -146z m296 -886 c-11 -6 -15 -17 -11 -31 5 -19 5
-20 -5 -4 -6 9 -19 17 -28 18 -12 0 -11 3 6 9 12 5 22 14 22 19 0 6 7 8 16 4
15 -5 15 -7 0 -15z m24 -12 c0 -3 -4 -8 -10 -11 -5 -3 -10 -1 -10 4 0 6 5 11
10 11 6 0 10 -2 10 -4z m-323 -72 c-9 -9 -28 6 -21 18 4 6 10 6 17 -1 6 -6 8
-13 4 -17z m-1337 -999 c0 -8 -7 -15 -16 -15 -14 0 -14 3 -4 15 7 8 14 15 16
15 2 0 4 -7 4 -15z"/>
<path d="M5770 8195 c-11 -13 -10 -14 4 -9 9 3 16 10 16 15 0 13 -6 11 -20 -6z"/>
<path d="M5830 8182 c0 -6 -8 -13 -17 -15 -16 -4 -16 -5 -1 -6 18 -1 34 16 24
26 -3 4 -6 1 -6 -5z"/>
<path d="M5351 8163 l-23 -5 27 -14 c32 -16 55 -18 55 -4 0 6 -10 10 -22 11
-22 0 -22 1 -3 9 21 9 6 10 -34 3z"/>
<path d="M5307 8133 c-4 -3 -7 -13 -7 -21 0 -13 3 -13 18 1 14 13 21 14 30 5
8 -8 12 -8 12 -1 0 17 -40 30 -53 16z"/>
<path d="M5260 8089 c0 -5 5 -7 10 -4 6 3 10 8 10 11 0 2 -4 4 -10 4 -5 0 -10
-5 -10 -11z"/>
<path d="M5900 8080 c0 -5 5 -10 11 -10 5 0 7 5 4 10 -3 6 -8 10 -11 10 -2 0
-4 -4 -4 -10z"/>
<path d="M4670 7610 c8 -5 20 -10 25 -10 6 0 3 5 -5 10 -8 5 -19 10 -25 10 -5
0 -3 -5 5 -10z"/>
<path d="M4445 7455 c-23 -19 -26 -25 -12 -25 9 0 17 5 17 11 0 6 6 9 13 6 8
-3 13 3 13 14 0 11 0 19 -1 19 0 -1 -13 -12 -30 -25z"/>
<path d="M4360 7400 c-8 -5 -12 -11 -9 -14 2 -3 11 -1 19 4 8 5 12 11 9 14 -2
3 -11 1 -19 -4z"/>
<path d="M4408 7403 c7 -3 16 -2 19 1 4 3 -2 6 -13 5 -11 0 -14 -3 -6 -6z"/>
<path d="M4338 7363 c7 -3 16 -2 19 1 4 3 -2 6 -13 5 -11 0 -14 -3 -6 -6z"/>
<path d="M4157 7253 c-4 -3 -7 -11 -7 -17 0 -6 5 -5 12 2 6 6 9 14 7 17 -3 3
-9 2 -12 -2z"/>
<path d="M959 6789 c-16 -31 -6 -115 17 -140 10 -12 44 -37 74 -57 73 -46 183
-153 229 -222 50 -74 88 -170 102 -255 11 -70 14 -1888 4 -2285 -5 -178 0
-240 17 -240 26 0 39 13 683 665 303 307 978 986 1500 1509 523 523 960 965
973 983 12 17 19 34 15 36 -5 3 -213 8 -463 12 -407 6 -458 5 -485 -9 -16 -9
-26 -16 -21 -16 10 0 -180 -195 -741 -760 l-432 -434 5 214 c3 118 1 341 -4
495 -10 326 -22 379 -98 463 l-42 47 -323 7 c-178 3 -476 6 -661 7 -335 1
-337 1 -349 -20z"/>
<path d="M4160 5974 c-448 -448 -1015 -1012 -1258 -1252 -244 -240 -448 -444
-453 -453 -5 -11 -3 -22 9 -35 39 -42 112 -141 112 -150 0 -6 10 -16 23 -23
13 -7 31 -25 40 -39 8 -15 35 -48 59 -74 59 -66 118 -144 118 -158 0 -6 3 -9
8 -6 14 9 190 -269 255 -404 72 -150 140 -336 135 -372 -2 -19 -17 -5 -89 82
-47 58 -103 123 -123 145 -20 22 -85 98 -144 169 -59 71 -140 168 -179 215
-40 47 -73 91 -73 99 0 7 -4 10 -10 7 -5 -3 -10 1 -10 10 0 9 -4 14 -9 10 -5
-3 -12 4 -16 15 -3 11 -10 20 -15 20 -5 0 -7 7 -4 15 5 11 2 13 -11 9 -13 -5
-16 -3 -13 7 3 8 -6 22 -19 32 -12 10 -22 21 -21 25 3 15 -15 42 -28 42 -8 0
-18 8 -21 18 -7 18 -33 48 -33 38 0 -3 -17 13 -37 36 -40 45 -74 77 -83 78
-12 0 -423 -399 -472 -459 -15 -19 -28 -32 -28 -29 0 3 -44 -39 -97 -93 -53
-54 -100 -96 -103 -94 -3 2 -11 -9 -18 -24 -7 -15 -20 -36 -30 -47 -9 -10 -45
-50 -79 -88 l-63 -69 0 -761 c0 -835 -7 -1004 -45 -1125 -61 -191 -223 -343
-434 -407 -49 -14 -65 -24 -73 -44 -10 -26 -5 -177 7 -188 4 -4 86 -10 183
-14 176 -6 226 -13 217 -28 -3 -5 0 -12 6 -16 8 -4 7 -9 -2 -15 -10 -6 -11 -9
-1 -9 6 0 12 -7 12 -15 0 -8 6 -15 14 -15 8 0 16 -7 20 -15 3 -8 11 -15 19
-15 7 0 24 -11 36 -24 13 -14 40 -28 63 -31 32 -6 293 -10 293 -5 0 1 40 3 88
5 49 2 94 9 102 15 8 7 18 9 23 6 10 -6 160 -14 357 -20 85 -2 130 -7 133 -15
5 -15 21 -14 39 5 10 9 25 13 42 10 22 -5 116 3 225 18 15 2 33 9 39 15 6 6
21 11 34 11 13 0 23 6 23 13 0 8 11 19 25 25 17 8 23 17 20 32 -2 13 2 23 11
27 11 4 12 8 4 13 -6 4 26 12 71 18 55 7 87 16 95 26 13 18 18 185 7 202 -5 6
-50 23 -101 38 -144 41 -198 71 -279 153 -40 40 -73 79 -73 88 0 8 -4 15 -8
15 -5 0 -25 35 -45 78 -31 67 -53 142 -74 257 -3 17 -7 266 -8 555 -2 289 1
505 5 480 l7 -45 1 43 c1 23 6 42 11 42 4 0 6 -11 3 -25 -2 -15 0 -25 7 -25 7
0 11 -21 11 -55 0 -30 5 -55 10 -55 6 0 10 9 10 19 0 11 5 23 10 26 6 3 10 -1
10 -9 0 -9 5 -16 10 -16 6 0 10 4 10 10 0 5 9 2 20 -7 11 -10 20 -23 20 -30 0
-16 12 -17 29 0 11 10 14 9 18 0 3 -7 21 -13 40 -13 36 0 103 -33 103 -51 0
-5 5 -9 10 -9 6 0 10 10 10 22 0 17 3 19 12 10 7 -7 18 -12 25 -12 16 0 17 22
1 38 -6 6 -12 25 -13 42 -1 23 3 30 17 30 10 0 18 5 18 10 0 15 16 12 34 -5 8
-9 13 -23 10 -33 -4 -12 -3 -13 3 -4 7 9 22 -3 56 -45 25 -32 57 -71 72 -88
52 -59 63 -73 116 -141 29 -38 74 -94 99 -124 25 -30 82 -102 125 -158 80
-103 207 -267 289 -372 24 -30 60 -80 82 -110 21 -30 63 -86 94 -125 117 -146
146 -183 170 -215 14 -18 70 -88 125 -154 55 -67 122 -149 149 -184 45 -57 52
-62 87 -62 57 0 246 -23 231 -28 -10 -3 -9 -7 3 -16 9 -6 17 -18 19 -26 4 -19
15 -51 25 -70 5 -9 26 -16 52 -18 24 -2 48 -7 54 -11 15 -13 86 -25 123 -22
18 1 38 -2 45 -7 7 -5 50 -7 97 -5 189 9 241 9 390 1 113 -7 167 -6 200 3 25
7 65 16 90 20 112 20 125 24 136 47 6 13 21 30 33 39 15 10 20 21 16 34 -4 11
-2 19 5 19 6 0 9 4 6 9 -10 15 43 23 204 29 l155 7 0 89 0 90 -120 79 c-155
104 -381 327 -540 536 -61 79 -173 225 -250 325 -77 100 -149 193 -160 208
-11 14 -104 133 -206 265 -102 131 -257 333 -344 448 -178 236 -256 338 -436
572 -68 89 -178 232 -244 318 -66 87 -142 185 -168 219 -53 67 -63 80 -122
157 -94 122 -179 227 -217 267 -46 48 -47 44 35 122 136 128 767 772 767 782
0 4 5 8 10 8 6 0 10 -3 9 -7 -2 -14 13 -53 21 -53 4 0 19 -22 34 -50 15 -27
25 -50 22 -50 -3 0 6 -17 20 -37 33 -49 135 -260 137 -284 1 -11 4 -19 8 -19
4 0 22 -35 39 -77 18 -42 36 -84 40 -92 42 -79 80 -165 80 -180 0 -11 4 -21 9
-23 10 -4 81 -155 81 -174 0 -7 6 -19 13 -26 10 -11 53 -104 61 -133 2 -5 22
-50 46 -100 24 -49 44 -102 44 -116 1 -15 4 -25 7 -23 3 1 12 -12 19 -31 8
-19 17 -35 22 -35 4 0 8 -14 8 -31 0 -16 4 -28 9 -25 9 6 81 -164 81 -190 0
-9 4 -12 10 -9 6 3 7 -1 4 -9 -9 -23 -24 -20 -24 5 0 11 -5 17 -10 14 -6 -3
-7 -18 -4 -33 4 -21 3 -23 -5 -12 -14 20 -34 1 -21 -20 8 -12 13 -13 30 -2 22
13 27 3 8 -17 -11 -10 -9 -16 10 -31 12 -10 28 -20 35 -23 9 -3 8 -9 -4 -23
-11 -13 -15 -35 -13 -69 1 -27 3 -59 3 -71 1 -28 37 -69 46 -53 6 8 10 8 16
-2 4 -8 4 -16 -2 -19 -5 -4 -1 -15 9 -26 32 -34 55 -74 43 -74 -6 0 -11 -4
-11 -10 0 -5 9 -10 19 -10 12 0 21 -9 25 -25 4 -14 20 -55 36 -91 17 -35 30
-70 30 -77 0 -7 6 -21 14 -32 26 -38 118 -220 136 -270 21 -58 139 -309 162
-345 9 -14 19 -36 23 -50 4 -14 12 -30 17 -37 5 -6 24 -40 42 -75 65 -124 155
-283 175 -310 12 -14 21 -31 21 -37 0 -6 4 -11 9 -11 6 0 16 -11 23 -25 7 -13
33 -53 58 -89 38 -55 48 -64 67 -60 19 5 23 2 23 -17 1 -22 2 -22 11 -6 6 10
8 24 5 32 -3 9 0 12 8 9 7 -3 16 2 19 10 4 9 15 16 26 16 11 0 23 5 27 11 4 7
15 -1 27 -21 12 -18 23 -28 25 -22 2 8 12 5 29 -8 14 -11 32 -20 39 -20 8 0
14 -4 14 -9 0 -5 14 -14 31 -20 32 -11 59 -1 59 21 0 5 14 40 31 76 17 37 51
112 76 167 25 55 58 128 74 162 16 34 29 65 29 68 0 3 15 38 33 78 19 40 41
88 50 107 100 226 175 391 237 525 67 144 76 163 138 305 33 74 117 261 186
415 70 154 139 309 154 345 15 36 30 67 35 68 4 2 7 9 7 16 0 6 45 113 100
236 55 124 105 236 111 250 6 14 15 32 19 41 5 9 24 54 43 100 19 46 48 113
64 149 17 36 47 103 67 150 21 47 50 112 66 145 15 33 53 121 85 195 31 74 75
175 98 223 37 79 42 86 48 63 4 -14 5 -42 3 -63 -2 -21 -4 -172 -4 -335 -1
-287 -2 -296 -21 -293 -14 3 -19 -2 -19 -16 0 -11 3 -18 8 -16 4 3 6 -23 4
-56 -2 -40 0 -57 6 -49 16 24 20 -36 32 -413 7 -222 10 -763 8 -1410 -4 -968
-5 -1056 -22 -1125 -32 -135 -108 -280 -182 -350 -84 -79 -241 -163 -370 -198
l-69 -19 0 -109 0 -109 130 -6 c72 -3 139 -9 150 -12 21 -7 32 -47 13 -47 -6
0 -3 -11 6 -25 9 -13 16 -32 16 -42 0 -13 3 -14 8 -5 6 9 16 4 35 -18 15 -16
32 -30 37 -30 6 0 10 -6 10 -14 0 -9 21 -16 68 -21 37 -4 90 -10 117 -13 50
-6 85 -7 140 -4 29 1 169 -3 393 -11 56 -2 102 0 102 5 0 4 14 8 30 8 17 0 30
-5 30 -12 0 -9 3 -9 8 -2 11 16 41 24 48 13 3 -6 13 -7 23 -3 9 4 61 8 116 8
55 1 107 6 115 11 20 13 258 13 264 0 2 -6 21 -9 42 -8 22 2 73 3 114 4 86 1
146 15 163 39 7 9 20 19 30 23 11 4 21 16 24 27 3 11 9 18 13 15 4 -3 10 9 12
25 3 16 1 31 -3 32 -4 2 -1 12 7 22 17 24 82 34 221 35 94 1 103 3 114 23 14
25 7 174 -8 189 -6 6 -57 24 -114 41 -161 46 -222 80 -309 167 -104 106 -160
224 -180 385 -17 136 -25 403 -80 2686 -5 239 -14 541 -20 670 -5 129 -10 305
-10 390 0 85 -5 257 -11 383 -12 243 -7 317 31 444 25 81 40 108 92 164 61 66
207 153 292 175 51 12 66 39 66 114 0 41 -5 72 -11 76 -14 8 -1663 7 -1859 -2
-155 -7 -189 -19 -239 -89 -17 -23 -89 -177 -160 -341 -71 -165 -143 -328
-159 -364 -35 -76 -248 -554 -320 -720 -28 -63 -73 -164 -100 -225 -27 -60
-100 -222 -162 -360 -62 -137 -148 -333 -192 -435 -81 -187 -135 -300 -143
-300 -11 0 -175 317 -425 824 -534 1080 -729 1472 -771 1549 l-43 78 252 252
c139 139 257 259 262 267 11 17 13 71 4 94 -5 14 -51 16 -413 16 l-406 0 -815
-816z m952 -2699 c-6 -11 -11 -11 -27 2 -19 15 -19 15 5 8 20 -6 23 -5 13 6
-7 7 -13 22 -13 34 0 17 3 15 15 -9 8 -15 12 -34 7 -41z m29 -88 c-8 -8 -11
-8 -11 0 0 6 -3 20 -7 30 -7 17 -6 17 11 0 14 -14 16 -21 7 -30z m-2301 -693
c0 -8 -4 -12 -10 -9 -5 3 -10 10 -10 16 0 5 5 9 10 9 6 0 10 -7 10 -16z m3100
-876 c0 -4 -4 -8 -9 -8 -6 0 -12 4 -15 8 -3 5 1 9 9 9 8 0 15 -4 15 -9z m220
-209 c0 -11 -27 -12 -34 0 -3 4 -3 11 0 14 8 8 34 -3 34 -14z"/>
<path d="M8087 4420 c2 -58 6 -107 9 -109 8 -8 2 164 -6 189 -5 15 -6 -19 -3
-80z"/>
<path d="M8113 4275 c0 -33 2 -45 4 -27 2 18 2 45 0 60 -2 15 -4 0 -4 -33z"/>
<path d="M4921 3634 c0 -11 3 -14 6 -6 3 7 2 16 -1 19 -3 4 -6 -2 -5 -13z"/>
<path d="M4920 3550 c0 -5 5 -10 10 -10 6 0 10 5 10 10 0 6 -4 10 -10 10 -5 0
-10 -4 -10 -10z"/>
<path d="M5055 3230 c-3 -5 -1 -10 4 -10 6 0 11 5 11 10 0 6 -2 10 -4 10 -3 0
-8 -4 -11 -10z"/>
<path d="M6167 1369 c7 -7 15 -10 18 -7 3 3 -2 9 -12 12 -14 6 -15 5 -6 -5z"/>
</g>
</svg>
